<svg width="71" height="69" viewBox="0 0 71 69" fill="none" xmlns="http://www.w3.org/2000/svg">
<path fill-rule="evenodd" clip-rule="evenodd" d="M15.88 9.52386C10.134 9.52386 5.47586 14.182 5.47586 19.928V52.7832C5.47586 58.5292 10.134 63.1873 15.88 63.1873H48.7352C54.4812 63.1873 59.1393 58.5292 59.1393 52.7832V36.3556C59.1393 34.8435 60.3651 33.6177 61.8772 33.6177C63.3894 33.6177 64.6152 34.8435 64.6152 36.3556V52.7832C64.6152 61.5535 57.5055 68.6632 48.7352 68.6632H15.88C7.10972 68.6632 0 61.5535 0 52.7832V19.928C0 11.1577 7.10972 4.048 15.88 4.048H34.4979C36.01 4.048 37.2359 5.27381 37.2359 6.78593C37.2359 8.29805 36.01 9.52386 34.4979 9.52386H15.88Z" fill="white"/>
<path fill-rule="evenodd" clip-rule="evenodd" d="M17.6601 40.5925C17.666 39.8742 17.954 39.1871 18.4619 38.6791L54.4306 2.71041C55.9275 1.21349 58.3545 1.21349 59.8514 2.71041L67.5955 10.4545C69.0924 11.9514 69.0924 14.3784 67.5955 15.8753L31.6268 51.844C31.1188 52.3519 30.4317 52.6399 29.7134 52.6458L20.3431 52.7233C19.6091 52.7294 18.9034 52.4405 18.3844 51.9215C17.8654 51.4024 17.5765 50.6968 17.5826 49.9628L17.6601 40.5925ZM23.1265 41.7586L23.0813 47.2246L28.5473 47.1794L62.5619 13.1649L57.141 7.74404L23.1265 41.7586Z" fill="white"/>
</svg>
